<svg xmlns="http://www.w3.org/2000/svg" width="120" height="120" version="1.0" viewBox="0 0 90 90"><path fill="#fc1287" d="m16.2 17.185 16.375 41.422v15.469h18.203V58.607l16.39-41.422H47.076l-5.094 20.031h-.672l-5.015-20.03ZM73.528 60.576c2.031 0 3.71.656 5.047 1.969 1.343 1.312 2.015 3.03 2.015 5.156 0 2.125-.672 3.851-2.015 5.172-1.336 1.312-3.016 1.968-5.047 1.968-2.024 0-3.715-.683-5.078-2.046-1.368-1.375-2.047-3.07-2.047-5.094 0-2.125.68-3.844 2.047-5.156 1.363-1.313 3.054-1.97 5.078-1.97Zm0 0"/></svg>